<svg width="21" height="17" viewBox="0 0 21 17" fill="none" xmlns="http://www.w3.org/2000/svg">
<path d="M18.9 0H2.1C0.945 0 0 0.95625 0 2.125V14.875C0 16.0438 0.945 17 2.1 17H18.9C20.055 17 21 16.0438 21 14.875V2.125C21 0.95625 20.055 0 18.9 0ZM18.48 4.51562L11.613 8.86125C10.9305 9.29688 10.0695 9.29688 9.387 8.86125L2.52 4.51562C2.2575 4.34562 2.1 4.05875 2.1 3.75063C2.1 3.03875 2.8665 2.61375 3.465 2.98563L10.5 7.4375L17.535 2.98563C18.1335 2.61375 18.9 3.03875 18.9 3.75063C18.9 4.05875 18.7425 4.34562 18.48 4.51562Z" fill="#1E87FF"/>
</svg>
