<svg width="19" height="28" viewBox="0 0 19 28" fill="none" xmlns="http://www.w3.org/2000/svg">
<path d="M9.5 0.962891C4.24786 0.962891 0 5.22303 0 10.4904C0 16.166 5.99857 23.9922 8.46857 26.9729C9.01143 27.6262 10.0021 27.6262 10.545 26.9729C13.0014 23.9922 19 16.166 19 10.4904C19 5.22303 14.7521 0.962891 9.5 0.962891ZM9.5 13.893C7.62714 13.893 6.10714 12.3686 6.10714 10.4904C6.10714 8.61209 7.62714 7.0877 9.5 7.0877C11.3729 7.0877 12.8929 8.61209 12.8929 10.4904C12.8929 12.3686 11.3729 13.893 9.5 13.893Z" fill="#1E87FF"/>
</svg>
