<svg width="14" height="12" viewBox="0 0 14 12" fill="none" xmlns="http://www.w3.org/2000/svg">
<path d="M13.6962 5.4382C13.9717 5.19793 14.069 4.84529 13.9502 4.51749C13.831 4.18969 13.5207 3.95569 13.1394 3.90603L9.74965 3.46537C9.60528 3.44656 9.48053 3.36555 9.41605 3.24842L7.90057 0.500606C7.73041 0.191866 7.38504 0 7.00014 0C6.61552 0 6.27015 0.191866 6.09999 0.500606L4.58423 3.24867C4.51975 3.3658 4.39472 3.44681 4.25035 3.46562L0.860564 3.90628C0.479592 3.95569 0.168983 4.18994 0.0498411 4.51774C-0.0690201 4.84555 0.0282555 5.19818 0.303823 5.43845L2.75646 7.57731C2.86102 7.6686 2.90896 7.80002 2.88429 7.92844L2.30568 10.9486C2.25438 11.2145 2.33231 11.4731 2.52462 11.677C2.82346 11.9947 3.34516 12.0915 3.76229 11.8954L6.79381 10.4693C6.92052 10.4099 7.08003 10.4104 7.20646 10.4693L10.2383 11.8954C10.3857 11.9649 10.543 12 10.7053 12C11.0016 12 11.2825 11.8821 11.4757 11.677C11.6682 11.4731 11.7459 11.214 11.6946 10.9486L11.1157 7.92844C11.091 7.79977 11.139 7.6686 11.2435 7.57731L13.6962 5.4382Z" fill="#F0BF5F"/>
</svg>
