<svg width="33" height="33" viewBox="0 0 33 33" fill="none" xmlns="http://www.w3.org/2000/svg">
<path d="M16.5 0C7.3875 0 0 7.3875 0 16.5C0 25.6125 7.3875 33 16.5 33C25.6125 33 33 25.6125 33 16.5C33 7.3875 25.6125 0 16.5 0ZM16.5 3C23.9557 3 30 9.04425 30 16.5C30 23.9557 23.9557 30 16.5 30C9.04425 30 3 23.9557 3 16.5C3 9.04425 9.04425 3 16.5 3ZM23.2808 10.0034C22.8998 9.95947 22.4212 10.0639 21.8862 10.2568C20.909 10.6093 8.41779 15.9135 7.69629 16.2202C7.01304 16.5112 6.3655 16.8284 6.36475 17.2866C6.36475 17.6091 6.55598 17.7912 7.08398 17.9795C7.63299 18.176 9.01746 18.5946 9.83496 18.8203C10.6225 19.0371 11.518 18.8481 12.0205 18.5361C12.5523 18.2054 18.6965 14.0944 19.1367 13.7344C19.577 13.3744 19.9288 13.8365 19.5688 14.1973C19.2088 14.558 14.9911 18.6488 14.4346 19.2158C13.7596 19.9043 14.2394 20.6176 14.6924 20.9033C15.2091 21.2296 18.9295 23.724 19.4897 24.1245C20.05 24.525 20.6172 24.7061 21.1377 24.7061C21.6582 24.7061 21.9322 24.0201 22.1909 23.2251C22.4947 22.2943 23.9175 13.014 24.0923 11.1855C24.1455 10.6313 23.9707 10.2629 23.6279 10.0986C23.5242 10.0489 23.4077 10.0181 23.2808 10.0034Z" fill="black"/>
</svg>
