<svg width="37" height="36" viewBox="0 0 37 36" fill="none" xmlns="http://www.w3.org/2000/svg">
<path d="M32.5 0H4.5C2.29 0 0.5 1.79 0.5 4V32C0.5 34.21 2.29 36 4.5 36H32.5C34.71 36 36.5 34.21 36.5 32V4C36.5 1.79 34.71 0 32.5 0ZM30.314 25.368L26.844 25.416C26.844 25.416 26.096 25.562 25.116 24.886C23.818 23.994 22.594 21.674 21.64 21.976C20.672 22.284 20.702 24.372 20.702 24.372C20.702 24.372 20.71 24.74 20.488 24.98C20.248 25.238 19.778 25.212 19.778 25.212H18.224C18.224 25.212 14.796 25.496 11.774 22.346C8.482 18.912 5.574 12.134 5.574 12.134C5.574 12.134 5.404 11.706 5.586 11.488C5.792 11.246 6.348 11.24 6.348 11.24L10.062 11.222C10.062 11.222 10.412 11.284 10.664 11.468C10.87 11.62 10.988 11.906 10.988 11.906C10.988 11.906 11.588 13.428 12.384 14.806C13.936 17.492 14.658 18.08 15.184 17.792C15.952 17.372 15.722 13.996 15.722 13.996C15.722 13.996 15.736 12.77 15.336 12.224C15.024 11.798 14.438 11.672 14.18 11.64C13.97 11.612 14.312 11.126 14.758 10.906C15.426 10.58 16.608 10.56 18.002 10.574C19.088 10.586 19.402 10.652 19.826 10.756C21.108 11.066 20.672 12.262 20.672 15.132C20.672 16.052 20.506 17.344 21.168 17.77C21.454 17.954 22.15 17.798 23.888 14.838C24.714 13.434 25.332 11.784 25.332 11.784C25.332 11.784 25.468 11.49 25.678 11.364C25.894 11.234 26.184 11.274 26.184 11.274L30.094 11.25C30.094 11.25 31.268 11.108 31.46 11.642C31.66 12.2 31.022 13.502 29.424 15.632C26.802 19.132 26.51 18.806 28.688 20.83C30.768 22.764 31.198 23.704 31.27 23.822C32.13 25.254 30.314 25.368 30.314 25.368Z" fill="black"/>
</svg>
