<svg width="42" height="31" viewBox="0 0 42 31" fill="none" xmlns="http://www.w3.org/2000/svg">
<path d="M40.7225 5.28C40.34 3.16875 38.5175 1.63125 36.4025 1.15125C33.2375 0.48 27.38 0 21.0425 0C14.7087 0 8.7575 0.48 5.58875 1.15125C3.4775 1.63125 1.65125 3.07125 1.26875 5.28C0.8825 7.68 0.5 11.04 0.5 15.36C0.5 19.68 0.8825 23.04 1.3625 25.44C1.74875 27.5513 3.57125 29.0887 5.6825 29.5687C9.0425 30.24 14.8025 30.72 21.14 30.72C27.4775 30.72 33.2375 30.24 36.5975 29.5687C38.7087 29.0887 40.5312 27.6487 40.9175 25.44C41.3 23.04 41.78 19.5825 41.8775 15.36C41.6825 11.04 41.2025 7.68 40.7225 5.28ZM15.86 22.08V8.64L27.5712 15.36L15.86 22.08Z" fill="black"/>
</svg>
